<svg width="1200" height="630" viewBox="0 0 1200 630" fill="none" xmlns="http://www.w3.org/2000/svg">
  <defs>
    <linearGradient id="bgGradient" x1="0%" y1="0%" x2="100%" y2="100%">
      <stop offset="0%" style="stop-color:#0a0a0a"/>
      <stop offset="100%" style="stop-color:#1a1a2e"/>
    </linearGradient>
    <linearGradient id="accentGradient" x1="0%" y1="0%" x2="100%" y2="0%">
      <stop offset="0%" style="stop-color:#00C6A7"/>
      <stop offset="100%" style="stop-color:#00E5C2"/>
    </linearGradient>
  </defs>
  
  <!-- Background -->
  <rect width="1200" height="630" fill="url(#bgGradient)"/>
  
  <!-- Decorative Grid Pattern -->
  <g opacity="0.1">
    <line x1="0" y1="100" x2="1200" y2="100" stroke="#00C6A7" stroke-width="1"/>
    <line x1="0" y1="200" x2="1200" y2="200" stroke="#00C6A7" stroke-width="1"/>
    <line x1="0" y1="300" x2="1200" y2="300" stroke="#00C6A7" stroke-width="1"/>
    <line x1="0" y1="400" x2="1200" y2="400" stroke="#00C6A7" stroke-width="1"/>
    <line x1="0" y1="500" x2="1200" y2="500" stroke="#00C6A7" stroke-width="1"/>
    <line x1="200" y1="0" x2="200" y2="630" stroke="#00C6A7" stroke-width="1"/>
    <line x1="400" y1="0" x2="400" y2="630" stroke="#00C6A7" stroke-width="1"/>
    <line x1="600" y1="0" x2="600" y2="630" stroke="#00C6A7" stroke-width="1"/>
    <line x1="800" y1="0" x2="800" y2="630" stroke="#00C6A7" stroke-width="1"/>
    <line x1="1000" y1="0" x2="1000" y2="630" stroke="#00C6A7" stroke-width="1"/>
  </g>
  
  <!-- Logo Icon -->
  <g transform="translate(540, 140)">
    <!-- Outer ring -->
    <circle cx="60" cy="60" r="55" stroke="url(#accentGradient)" stroke-width="4" fill="none"/>
    <!-- Image icon -->
    <rect x="25" y="30" width="70" height="55" rx="8" stroke="#00C6A7" stroke-width="3" fill="none"/>
    <circle cx="45" cy="50" r="8" fill="#00C6A7"/>
    <path d="M25 75 L50 55 L70 70 L95 45" stroke="#00C6A7" stroke-width="3" fill="none" stroke-linecap="round" stroke-linejoin="round"/>
    <!-- Upscale arrow -->
    <path d="M90 25 L110 25 L110 45" stroke="#00E5C2" stroke-width="3" fill="none" stroke-linecap="round" stroke-linejoin="round"/>
    <path d="M85 50 L110 25" stroke="#00E5C2" stroke-width="3" fill="none" stroke-linecap="round"/>
  </g>
  
  <!-- Main Title -->
  <text x="600" y="320" text-anchor="middle" font-family="system-ui, -apple-system, sans-serif" font-size="72" font-weight="700" fill="white">
    ImageStudio
  </text>
  
  <!-- Tagline -->
  <text x="600" y="380" text-anchor="middle" font-family="system-ui, -apple-system, sans-serif" font-size="28" fill="#888888">
    Free AI Image Upscaler &amp; Resizer
  </text>
  
  <!-- Feature Pills -->
  <g transform="translate(600, 440)">
    <!-- AI Upscale -->
    <rect x="-280" y="0" width="140" height="40" rx="20" fill="#00C6A7" fill-opacity="0.15" stroke="#00C6A7" stroke-width="1"/>
    <text x="-210" y="26" text-anchor="middle" font-family="system-ui, sans-serif" font-size="16" fill="#00C6A7">✨ AI Upscale 4x</text>
    
    <!-- Batch Process -->
    <rect x="-70" y="0" width="140" height="40" rx="20" fill="#00C6A7" fill-opacity="0.15" stroke="#00C6A7" stroke-width="1"/>
    <text x="0" y="26" text-anchor="middle" font-family="system-ui, sans-serif" font-size="16" fill="#00C6A7">📦 Batch Process</text>
    
    <!-- No Signup -->
    <rect x="140" y="0" width="140" height="40" rx="20" fill="#00C6A7" fill-opacity="0.15" stroke="#00C6A7" stroke-width="1"/>
    <text x="210" y="26" text-anchor="middle" font-family="system-ui, sans-serif" font-size="16" fill="#00C6A7">🚀 No Signup</text>
  </g>
  
  <!-- URL Footer -->
  <text x="600" y="580" text-anchor="middle" font-family="system-ui, sans-serif" font-size="24" fill="#00C6A7">
    imagestudio.app
  </text>
  
  <!-- Accent Corner Decorations -->
  <path d="M0 0 L80 0 L0 80 Z" fill="#00C6A7" fill-opacity="0.3"/>
  <path d="M1200 630 L1120 630 L1200 550 Z" fill="#00C6A7" fill-opacity="0.3"/>
</svg>
